PathFileType	4	(X/Y/Z)	OpenSim_Sub05_CSStiffKnee_Magnet.trc
DataRate	CameraRate	NumFrames	NumMarkers	Units	OrigDataRate	OrigDataStartFrame	OrigNumFrames
100	100	30	8	m	100	8437	11248
Frame#	Time	torso_imu_offset_imu	pelvis_imu_offset_imu	tibia_r_imu_offset_imu	femur_r_imu_offset_imu	tibia_l_imu_offset_imu	femur_l_imu_offset_imu	toes_r_imu_offset_imu	toes_l_imu_offset_imu
				X1	Y1	Z1	X2	Y2	Z2	X3	Y3	Z3	X4	Y4	Z4	X5	Y5	Z5	X6	Y6	Z6	X7	Y7	Z7	X8		Y8	Z8	

8437	84.36000000	-0.88905071	-0.22295703	0.14785412	-0.67243681	0.19372964	-0.63797790	-0.35998814	-0.72120894	-0.04122588	-0.77065487	-0.36703669	0.13612851	-0.68799950	0.36208176	0.22274140	-0.58967756	0.22582257	0.23062375	-0.77300770	-0.18026810	-0.01141721	-0.64385713	-0.22526739	-0.41826178
8438	84.37000000	-0.88711202	-0.22305709	0.14038786	-0.66623473	0.19909647	-0.63812459	-0.34295976	-0.72874667	-0.04402090	-0.77555602	-0.35458931	0.12782450	-0.68218110	0.37067532	0.22943471	-0.58734383	0.23126479	0.22838658	-0.77633072	-0.18016689	0.02221622	-0.64837251	-0.22008323	-0.41544131
8439	84.38000000	-0.88672221	-0.22813813	0.14578906	-0.66607125	0.20220609	-0.63786226	-0.32328844	-0.74154990	-0.05405313	-0.78294428	-0.34174083	0.12390548	-0.67629423	0.37509494	0.23695963	-0.58633536	0.23486025	0.22966831	-0.77123617	-0.17838158	0.06326969	-0.65373521	-0.21840445	-0.40843786
8440	84.39000000	-0.88951589	-0.23255541	0.14254629	-0.66654939	0.20396356	-0.63232600	-0.29720734	-0.75005937	-0.05330282	-0.79588396	-0.31693061	0.11535357	-0.67303772	0.38287967	0.22964650	-0.58687448	0.24167796	0.23337244	-0.77177999	-0.18153465	0.10852315	-0.65499254	-0.21687473	-0.40671113
8441	84.40000000	-0.88297247	-0.23513498	0.13849004	-0.66458670	0.20655155	-0.63599547	-0.27728208	-0.75274950	-0.05927195	-0.80793475	-0.29510935	0.09952586	-0.67287613	0.38577437	0.23266786	-0.58588146	0.24239916	0.23622619	-0.76658224	-0.18312682	0.14686409	-0.65122214	-0.21835587	-0.40591111
8442	84.41000000	-0.88212161	-0.23928841	0.14028716	-0.67424781	0.20634287	-0.63182986	-0.25623098	-0.75929840	-0.06004126	-0.81237480	-0.27802335	0.08496251	-0.67006274	0.38673621	0.24718369	-0.58275392	0.23983702	0.23346519	-0.75481667	-0.18751958	0.18662087	-0.65283840	-0.22030805	-0.39649330
8443	84.42000000	-0.88449847	-0.24502850	0.14368457	-0.67342569	0.20388523	-0.62446784	-0.23340839	-0.76843679	-0.04785240	-0.81927717	-0.25463138	0.07243400	-0.66835677	0.39455242	0.24899625	-0.58392674	0.24441852	0.22956920	-0.73871796	-0.19988124	0.22704394	-0.65639913	-0.22517929	-0.39718308
8444	84.43000000	-0.88005289	-0.24980508	0.14181756	-0.67428541	0.20101420	-0.63186552	-0.21303045	-0.77480405	-0.02815116	-0.82851828	-0.23619601	0.06386926	-0.65806793	0.40050438	0.25289369	-0.58221000	0.24705729	0.23665465	-0.72143398	-0.21122797	0.25688838	-0.65906507	-0.22998952	-0.39490126
8445	84.44000000	-0.87604910	-0.25672730	0.14158521	-0.67804653	0.19564010	-0.62633008	-0.19083668	-0.77730549	-0.01297386	-0.83735460	-0.21461784	0.04958935	-0.65728877	0.40128907	0.25285487	-0.58189289	0.24455633	0.24300294	-0.71279737	-0.22034364	0.28761078	-0.66394545	-0.22431062	-0.38985151
8446	84.45000000	-0.87655397	-0.26112661	0.13897999	-0.67966073	0.18875764	-0.62056692	-0.16836546	-0.78006561	0.00140283	-0.83955119	-0.19537275	0.02814535	-0.65616649	0.40675373	0.25628672	-0.58490857	0.24670363	0.23563983	-0.69907667	-0.22838221	0.31676149	-0.66107311	-0.22491201	-0.38675884
8447	84.46000000	-0.86984189	-0.26889465	0.13849496	-0.68119144	0.18436720	-0.62135248	-0.14867049	-0.78605581	0.01691215	-0.84548739	-0.17479004	0.01675364	-0.64782228	0.40965339	0.26881300	-0.57877709	0.24638253	0.23597798	-0.68746069	-0.23548190	0.33111699	-0.66276948	-0.22791057	-0.38370175
8448	84.47000000	-0.87097572	-0.27782742	0.13834017	-0.67903878	0.18320692	-0.62235629	-0.13624621	-0.78976076	0.02796143	-0.85375451	-0.15160986	0.00954635	-0.64445063	0.41264069	0.27148840	-0.57556819	0.24579424	0.24970873	-0.68523469	-0.24085357	0.33368605	-0.66490083	-0.22739844	-0.38541102
8449	84.48000000	-0.87062024	-0.28501843	0.13474423	-0.68056521	0.17899500	-0.62381087	-0.12284343	-0.78652751	0.02834462	-0.85515507	-0.12941567	0.01024583	-0.63936518	0.41811708	0.26660289	-0.57408827	0.24901774	0.25777209	-0.68491057	-0.24962057	0.33652032	-0.66014106	-0.22699768	-0.37992205
8450	84.49000000	-0.86916958	-0.29132672	0.13896852	-0.68167777	0.17945685	-0.62260361	-0.12277520	-0.78458719	0.01524385	-0.85938472	-0.11152036	0.00852070	-0.63732201	0.42590759	0.26345067	-0.56948273	0.24907016	0.25811353	-0.68675529	-0.25721440	0.32764880	-0.65821930	-0.22966210	-0.37447340
8451	84.50000000	-0.86730031	-0.29723180	0.13869881	-0.67390095	0.17489424	-0.62610058	-0.12979838	-0.78337584	-0.00558116	-0.86282406	-0.09250153	0.00343060	-0.63877054	0.42744504	0.26644904	-0.57141182	0.25305200	0.26479591	-0.69169326	-0.25319770	0.31128812	-0.66419749	-0.23203804	-0.38323258
8452	84.51000000	-0.86228054	-0.30563508	0.13799360	-0.67340956	0.17498169	-0.62537569	-0.13787852	-0.78332644	-0.02838147	-0.86705329	-0.07563328	0.00150088	-0.63434782	0.42751364	0.26920342	-0.56735737	0.25629884	0.27028859	-0.70180429	-0.25196678	0.30048810	-0.66662038	-0.23278001	-0.38394714
8453	84.52000000	-0.86509427	-0.30877924	0.13690278	-0.67698783	0.17919451	-0.62535815	-0.14931690	-0.77710677	-0.04257697	-0.87480551	-0.06349221	-0.00384975	-0.63099768	0.43339430	0.27490240	-0.56248059	0.25883089	0.26717862	-0.71205619	-0.24891442	0.28281024	-0.66385811	-0.23430194	-0.37895137
8454	84.53000000	-0.86285939	-0.30708459	0.13641742	-0.67540450	0.18023151	-0.62712933	-0.16533701	-0.77133436	-0.05213640	-0.87853916	-0.04707511	-0.00383399	-0.62931970	0.43507142	0.27361373	-0.56120051	0.25863798	0.27623192	-0.72365095	-0.24379881	0.25714544	-0.66757167	-0.23381923	-0.38009461
8455	84.54000000	-0.85671818	-0.31255003	0.13978543	-0.67217605	0.18487021	-0.62683592	-0.18475756	-0.76326004	-0.06180418	-0.87681772	-0.03262946	-0.01020429	-0.62665703	0.44335400	0.27270132	-0.55792073	0.26484196	0.28115433	-0.72897051	-0.23655161	0.23499512	-0.66823695	-0.23548178	-0.37252254
8456	84.55000000	-0.85907078	-0.31600418	0.13958647	-0.67553253	0.18325415	-0.62721451	-0.20476386	-0.75817622	-0.06023413	-0.87691757	-0.01994494	-0.01339547	-0.62748132	0.44672231	0.27608439	-0.55327605	0.27235581	0.27862552	-0.73549765	-0.22771863	0.21006933	-0.66875854	-0.23633504	-0.37712935
8457	84.56000000	-0.86034832	-0.31521674	0.13799043	-0.67717706	0.18639193	-0.62574944	-0.22546561	-0.75460069	-0.05254355	-0.88067989	-0.01069728	-0.01049519	-0.61933982	0.45215750	0.27469664	-0.55005157	0.27427504	0.27820422	-0.74951141	-0.22174550	0.18052493	-0.67314728	-0.23788106	-0.37817695
8458	84.57000000	-0.85889958	-0.31570584	0.13855954	-0.67328424	0.18686936	-0.62491475	-0.24990970	-0.74188188	-0.04776781	-0.87886738	-0.00443568	-0.00901763	-0.61320803	0.45973471	0.27555070	-0.54851980	0.27281578	0.28257123	-0.75418896	-0.21067874	0.14833469	-0.67374796	-0.23688545	-0.37572935
8459	84.58000000	-0.85737525	-0.31429275	0.13760440	-0.67564362	0.18154712	-0.62309694	-0.27785458	-0.73591055	-0.04276221	-0.87899770	0.00555038	-0.00546677	-0.61370931	0.45530368	0.27800595	-0.54392348	0.27838148	0.29228784	-0.76186899	-0.19356641	0.11874405	-0.67412736	-0.23245613	-0.37900751
8460	84.59000000	-0.85887678	-0.31408527	0.14167984	-0.67467893	0.18569516	-0.62451801	-0.30621321	-0.72063641	-0.03557811	-0.88202770	0.01519217	-0.01083079	-0.60895648	0.46215544	0.28008850	-0.53844967	0.28260218	0.29397626	-0.77279734	-0.18329860	0.09253874	-0.67988159	-0.22562591	-0.37420074
8461	84.60000000	-0.86043673	-0.31660305	0.14531573	-0.67028880	0.19240097	-0.62797729	-0.34363582	-0.70106420	-0.02607749	-0.88290076	0.02224245	-0.01386232	-0.60949350	0.47103882	0.28077981	-0.53323398	0.28008193	0.29844161	-0.77776952	-0.16640905	0.05464735	-0.67568329	-0.23320361	-0.37824965
8462	84.61000000	-0.85873991	-0.31867355	0.14662486	-0.67178386	0.19084856	-0.63432495	-0.37411202	-0.68384692	-0.01608744	-0.88367115	0.02098966	-0.00989205	-0.60578112	0.47314580	0.28066278	-0.53411903	0.28908784	0.29878943	-0.78116144	-0.14566318	0.01302824	-0.67485014	-0.23279403	-0.37836729
8463	84.62000000	-0.85789499	-0.32008252	0.14504510	-0.66885090	0.18501215	-0.63156665	-0.40133934	-0.66556661	-0.01000575	-0.87925879	0.02050691	-0.00311872	-0.60065339	0.47670898	0.28639046	-0.53634316	0.29226532	0.30037831	-0.78502358	-0.12987322	-0.02640854	-0.68323555	-0.22712929	-0.37384783
8464	84.63000000	-0.85543199	-0.31866199	0.14428788	-0.66575056	0.18039947	-0.62969233	-0.43737073	-0.64262565	-0.00748794	-0.87911046	0.02420947	-0.00122493	-0.59936421	0.48039990	0.28752001	-0.53254457	0.29703624	0.30713171	-0.78623336	-0.11438305	-0.05943445	-0.68232743	-0.23289382	-0.38057626
8465	84.64000000	-0.85321868	-0.31689064	0.14877488	-0.66802248	0.17963146	-0.63280553	-0.46950811	-0.62260441	-0.00050913	-0.87767725	0.02077573	-0.00174768	-0.59664914	0.48898943	0.28209589	-0.52705080	0.30852934	0.30294311	-0.78561784	-0.09887169	-0.09770252	-0.68492899	-0.23307907	-0.37557711
8466	84.65000000	-0.85257304	-0.31935481	0.14998684	-0.66722515	0.17996218	-0.63553079	-0.50371844	-0.60005032	0.00311609	-0.87632415	0.01939563	0.00745389	-0.59729135	0.49571000	0.28172869	-0.52184924	0.31519128	0.30845909	-0.78314890	-0.08363630	-0.13740259	-0.68831049	-0.23371402	-0.36977154
